<svg width="61" height="61" viewBox="0 0 61 61" fill="none" xmlns="http://www.w3.org/2000/svg">
<g clip-path="url(#clip0_552_323)">
<mask id="path-1-inside-1_552_323" fill="white">
<path d="M15.3191 22.3642C15.4061 22.6989 15.501 23.0328 15.6164 23.3588C15.8524 24.0256 16.0989 24.6887 16.3493 25.3504C16.9895 27.0422 17.6226 28.7369 18.2834 30.4209C18.5131 31.0062 18.8158 31.5633 19.0854 32.1332C19.2498 32.4739 19.3076 32.8556 19.2511 33.2292C19.2074 33.5563 19.2881 33.9145 19.3772 34.2419C19.7615 35.6524 20.4717 36.925 21.1653 38.198C21.6677 39.1444 22.224 40.0618 22.8315 40.9457C23.7106 42.195 24.664 43.3934 25.5999 44.6027C25.9833 45.0981 26.4039 45.5651 26.817 46.0563C26.6428 46.2921 26.3786 46.3374 26.1503 46.4063C25.5139 46.5986 24.867 46.7564 24.2234 46.9249C23.6438 47.0767 23.0581 47.0185 22.4736 46.9646C22.043 46.9248 21.674 46.7065 21.3694 46.4446C19.4141 44.7627 17.4799 43.0575 16.0958 40.8451C14.9896 39.0771 14.1828 37.1881 13.7932 35.14C13.6411 34.3404 13.4414 33.5427 13.4601 32.7181C13.4499 32.5925 13.4552 32.466 13.4761 32.3417C13.6607 31.6972 13.5484 31.0609 13.4344 30.4262C13.2293 29.378 13.1083 28.3154 13.0726 27.2483C13.0617 26.6519 12.9868 26.0552 13.0024 25.4602C13.02 24.7874 13.0997 24.1158 13.1657 23.445C13.2325 22.7654 13.5808 22.1995 13.9332 21.6355C14.0825 21.3968 14.2193 21.1507 14.343 20.8981C14.5793 20.4143 14.8535 19.9709 15.4639 19.9305C15.7073 19.9144 15.9552 19.965 16.3154 19.9947C16.0474 20.3033 15.8265 20.5129 15.6621 20.7595C15.4997 21.0031 15.3942 21.2841 15.2595 21.5574C15.2399 21.8277 15.26 22.0995 15.3191 22.3642ZM21.846 24.9566C22.3543 25.9319 22.8663 26.9053 23.3634 27.8861C23.7063 28.5765 23.9668 29.3042 24.1398 30.0544C24.1831 30.2352 24.2418 30.4123 24.2962 30.6009C24.4279 30.612 24.5331 30.6208 24.6439 30.6301C24.6649 30.6712 24.7068 30.7141 24.703 30.7527C24.6927 30.8594 24.6948 30.9877 24.6359 31.0659C24.3838 31.4003 24.1115 31.7198 23.838 32.0552C23.6206 31.8844 23.6819 31.7618 23.7931 31.625C23.9287 31.4583 24.051 31.2811 24.1791 31.1082C23.538 29.6056 22.9214 28.1455 22.2914 26.6912C22.0422 26.1158 21.7638 25.5529 21.4972 24.9849L19.9086 22.3844L19.4168 21.5737C19.0676 21.1876 18.7198 20.7998 18.357 20.4266C18.0632 20.1243 17.6802 19.9636 17.2742 20.0786C16.9136 20.1895 16.5721 20.3542 16.2616 20.567C15.9606 20.7805 15.7444 21.0915 15.6504 21.4463C15.6504 21.4463 15.4765 21.7689 15.6494 22.4063C15.7357 22.7243 15.8224 23.0438 15.938 23.3518C16.3138 24.3537 16.7261 25.3426 17.0824 26.3511C17.7173 28.1481 18.3842 29.9306 19.2042 31.6551C19.3909 32.0475 19.6291 32.4465 19.5667 32.9096C19.4473 33.7947 19.7404 34.5946 20.0976 35.3684C20.52 36.2832 20.9928 37.1753 21.4507 38.0738C22.2038 39.5288 23.0946 40.9097 24.1112 42.1978C24.7214 42.9818 25.3217 43.7733 25.9363 44.5539C26.6233 45.4205 27.4221 46.1941 28.312 46.855C29.2066 47.5326 30.1623 48.127 31.1671 48.6304C32.0114 49.0498 32.9682 49.1928 33.8997 49.0386C34.8144 48.8958 37.2756 47.4381 37.535 47.2626C37.8586 47.0436 38.1824 46.8252 38.5648 46.5668C38.6431 46.7419 38.6992 46.8673 38.7451 46.9698C38.1089 47.4077 37.5388 47.8321 36.9355 48.2037C36.5618 48.4339 36.1375 48.583 35.7365 48.77C34.8468 49.1851 33.9186 49.4178 32.9273 49.3643C32.7896 49.362 32.6519 49.3667 32.5148 49.3785C32.2368 49.7081 32.3982 50.0077 32.4414 50.2917C32.539 50.9822 32.8386 51.6292 33.303 52.1529C34.0419 52.9846 35.033 53.2023 36.0725 53.1123C36.7989 53.0429 37.513 52.8797 38.1967 52.6267C39.8053 52.0364 41.3259 51.2333 42.7174 50.2392C43.9241 49.3954 45.0399 48.4305 46.047 47.36C46.7726 46.5808 47.3929 45.7269 47.7511 44.7134C48.2965 43.1701 47.9451 41.778 46.7112 40.6915C46.514 40.5077 46.2781 40.3694 46.0205 40.2868C45.7629 40.2042 45.4901 40.1793 45.2216 40.2139C45.1832 40.3097 45.1503 40.4075 45.123 40.5069C45.0561 40.8299 44.9914 41.1535 44.9355 41.4785C44.9052 41.6545 44.8612 41.8064 44.5806 41.8604C44.6279 41.5465 44.6555 41.2744 44.7114 41.0082C44.8985 40.1796 44.9748 39.3301 44.9382 38.4817C44.9159 38.0901 44.8882 37.6983 44.8463 37.3083C44.7456 36.3722 44.6602 35.4334 44.5228 34.5023C44.2953 32.9605 43.898 31.4538 43.4731 29.956C43.28 29.2755 43.059 28.5996 42.6628 27.9714C42.3481 27.9033 42.1375 27.68 41.9654 27.4055C41.1614 26.1235 40.3429 24.8503 39.5523 23.5603C38.877 22.4582 38.2473 21.3286 37.5687 20.2287C37.1919 19.59 36.7456 18.9943 36.2377 18.452C35.6304 17.8271 35.2473 17.0366 34.7892 16.3027C33.6637 14.4951 32.3529 12.8076 30.8776 11.2669C29.8733 10.2191 28.5966 9.63984 27.294 9.09048C26.851 8.90369 26.4532 9.02413 26.0942 9.30721C25.7465 9.58607 25.4803 9.95188 25.323 10.3668C25.116 10.8846 25.1299 11.3463 25.5998 11.7309C25.7302 11.8462 25.8458 11.9769 25.9439 12.1202L27.1832 13.6774C27.2315 13.739 27.273 13.8085 27.3179 13.8742C28.1704 15.1236 29.0412 16.3612 29.8695 17.6261C30.5246 18.6266 31.1174 19.6668 31.7585 20.6766C32.0101 21.0562 32.2847 21.4203 32.5807 21.767C32.6575 21.8582 32.7533 21.9317 32.8617 21.9825C32.97 22.0333 33.0881 22.0601 33.2079 22.061C33.7431 22.0843 34.1531 22.3951 34.5779 22.6678C34.601 22.689 34.6147 22.7183 34.6163 22.7494C34.6072 22.813 34.5915 22.8754 34.5695 22.9357C34.3749 22.8566 34.1858 22.7651 34.0032 22.6617C33.7102 22.4736 33.3763 22.3573 33.0289 22.3226C32.812 22.2957 32.6078 22.2062 32.4418 22.0651C32.1805 21.8367 31.956 21.5702 31.7759 21.2746C30.8426 19.6486 29.8297 18.0721 28.7872 16.5145C28.1919 15.6251 27.557 14.7617 26.9368 13.8887L25.5962 12.186C25.2595 11.8347 24.9257 11.4801 24.6049 11.1145C23.8947 10.3051 23.0006 9.73889 22.0736 9.2162C21.7046 9.00813 21.3382 9.05143 20.9335 9.18256C20.0847 9.45758 19.9948 9.90857 19.8393 10.1968C19.5867 10.6651 19.5973 11.161 19.7696 11.6608C20.051 12.4965 20.4895 13.2719 21.0618 13.946C21.2359 14.1497 21.3973 14.3641 21.563 14.5748C22.4828 15.7436 23.2302 17.0234 24.0155 18.2804C24.867 19.6435 25.7656 20.9778 26.6478 22.3221C26.9151 22.7294 27.2013 23.4853 27.4568 23.8995C27.869 24.5678 28.0617 24.9499 28.1713 25.6745C28.2498 25.8801 28.516 25.9203 28.481 26.1554C28.0708 26.2067 27.9386 26.1355 27.7296 25.7478C26.9964 24.3879 26.2993 23.0076 25.524 21.6719C24.5749 20.0368 23.5727 18.4314 22.571 16.827C21.8036 15.5977 20.6196 14.83 19.395 14.1179C19.3541 14.0942 19.3078 14.0797 19.2647 14.0595C18.8057 13.8443 18.3697 13.9163 17.949 14.1648C17.8265 14.2371 17.7072 14.3146 17.5866 14.3899C17.3201 14.5616 17.1105 14.8072 16.9839 15.0961C16.8573 15.3851 16.8192 15.7045 16.8745 16.0147C16.9886 16.6783 17.2714 17.2666 17.6186 17.8388C18.3457 19.0365 19.0517 20.2468 19.7624 21.4541L21.846 24.9566Z"/>
</mask>
<path d="M15.3191 22.3642C15.4061 22.6989 15.501 23.0328 15.6164 23.3588C15.8524 24.0256 16.0989 24.6887 16.3493 25.3504C16.9895 27.0422 17.6226 28.7369 18.2834 30.4209C18.5131 31.0062 18.8158 31.5633 19.0854 32.1332C19.2498 32.4739 19.3076 32.8556 19.2511 33.2292C19.2074 33.5563 19.2881 33.9145 19.3772 34.2419C19.7615 35.6524 20.4717 36.925 21.1653 38.198C21.6677 39.1444 22.224 40.0618 22.8315 40.9457C23.7106 42.195 24.664 43.3934 25.5999 44.6027C25.9833 45.0981 26.4039 45.5651 26.817 46.0563C26.6428 46.2921 26.3786 46.3374 26.1503 46.4063C25.5139 46.5986 24.867 46.7564 24.2234 46.9249C23.6438 47.0767 23.0581 47.0185 22.4736 46.9646C22.043 46.9248 21.674 46.7065 21.3694 46.4446C19.4141 44.7627 17.4799 43.0575 16.0958 40.8451C14.9896 39.0771 14.1828 37.1881 13.7932 35.14C13.6411 34.3404 13.4414 33.5427 13.4601 32.7181C13.4499 32.5925 13.4552 32.466 13.4761 32.3417C13.6607 31.6972 13.5484 31.0609 13.4344 30.4262C13.2293 29.378 13.1083 28.3154 13.0726 27.2483C13.0617 26.6519 12.9868 26.0552 13.0024 25.4602C13.02 24.7874 13.0997 24.1158 13.1657 23.445C13.2325 22.7654 13.5808 22.1995 13.9332 21.6355C14.0825 21.3968 14.2193 21.1507 14.343 20.8981C14.5793 20.4143 14.8535 19.9709 15.4639 19.9305C15.7073 19.9144 15.9552 19.965 16.3154 19.9947C16.0474 20.3033 15.8265 20.5129 15.6621 20.7595C15.4997 21.0031 15.3942 21.2841 15.2595 21.5574C15.2399 21.8277 15.26 22.0995 15.3191 22.3642ZM21.846 24.9566C22.3543 25.9319 22.8663 26.9053 23.3634 27.8861C23.7063 28.5765 23.9668 29.3042 24.1398 30.0544C24.1831 30.2352 24.2418 30.4123 24.2962 30.6009C24.4279 30.612 24.5331 30.6208 24.6439 30.6301C24.6649 30.6712 24.7068 30.7141 24.703 30.7527C24.6927 30.8594 24.6948 30.9877 24.6359 31.0659C24.3838 31.4003 24.1115 31.7198 23.838 32.0552C23.6206 31.8844 23.6819 31.7618 23.7931 31.625C23.9287 31.4583 24.051 31.2811 24.1791 31.1082C23.538 29.6056 22.9214 28.1455 22.2914 26.6912C22.0422 26.1158 21.7638 25.5529 21.4972 24.9849L19.9086 22.3844L19.4168 21.5737C19.0676 21.1876 18.7198 20.7998 18.357 20.4266C18.0632 20.1243 17.6802 19.9636 17.2742 20.0786C16.9136 20.1895 16.5721 20.3542 16.2616 20.567C15.9606 20.7805 15.7444 21.0915 15.6504 21.4463C15.6504 21.4463 15.4765 21.7689 15.6494 22.4063C15.7357 22.7243 15.8224 23.0438 15.938 23.3518C16.3138 24.3537 16.7261 25.3426 17.0824 26.3511C17.7173 28.1481 18.3842 29.9306 19.2042 31.6551C19.3909 32.0475 19.6291 32.4465 19.5667 32.9096C19.4473 33.7947 19.7404 34.5946 20.0976 35.3684C20.52 36.2832 20.9928 37.1753 21.4507 38.0738C22.2038 39.5288 23.0946 40.9097 24.1112 42.1978C24.7214 42.9818 25.3217 43.7733 25.9363 44.5539C26.6233 45.4205 27.4221 46.1941 28.312 46.855C29.2066 47.5326 30.1623 48.127 31.1671 48.6304C32.0114 49.0498 32.9682 49.1928 33.8997 49.0386C34.8144 48.8958 37.2756 47.4381 37.535 47.2626C37.8586 47.0436 38.1824 46.8252 38.5648 46.5668C38.6431 46.7419 38.6992 46.8673 38.7451 46.9698C38.1089 47.4077 37.5388 47.8321 36.9355 48.2037C36.5618 48.4339 36.1375 48.583 35.7365 48.77C34.8468 49.1851 33.9186 49.4178 32.9273 49.3643C32.7896 49.362 32.6519 49.3667 32.5148 49.3785C32.2368 49.7081 32.3982 50.0077 32.4414 50.2917C32.539 50.9822 32.8386 51.6292 33.303 52.1529C34.0419 52.9846 35.033 53.2023 36.0725 53.1123C36.7989 53.0429 37.513 52.8797 38.1967 52.6267C39.8053 52.0364 41.3259 51.2333 42.7174 50.2392C43.9241 49.3954 45.0399 48.4305 46.047 47.36C46.7726 46.5808 47.3929 45.7269 47.7511 44.7134C48.2965 43.1701 47.9451 41.778 46.7112 40.6915C46.514 40.5077 46.2781 40.3694 46.0205 40.2868C45.7629 40.2042 45.4901 40.1793 45.2216 40.2139C45.1832 40.3097 45.1503 40.4075 45.123 40.5069C45.0561 40.8299 44.9914 41.1535 44.9355 41.4785C44.9052 41.6545 44.8612 41.8064 44.5806 41.8604C44.6279 41.5465 44.6555 41.2744 44.7114 41.0082C44.8985 40.1796 44.9748 39.3301 44.9382 38.4817C44.9159 38.0901 44.8882 37.6983 44.8463 37.3083C44.7456 36.3722 44.6602 35.4334 44.5228 34.5023C44.2953 32.9605 43.898 31.4538 43.4731 29.956C43.28 29.2755 43.059 28.5996 42.6628 27.9714C42.3481 27.9033 42.1375 27.68 41.9654 27.4055C41.1614 26.1235 40.3429 24.8503 39.5523 23.5603C38.877 22.4582 38.2473 21.3286 37.5687 20.2287C37.1919 19.59 36.7456 18.9943 36.2377 18.452C35.6304 17.8271 35.2473 17.0366 34.7892 16.3027C33.6637 14.4951 32.3529 12.8076 30.8776 11.2669C29.8733 10.2191 28.5966 9.63984 27.294 9.09048C26.851 8.90369 26.4532 9.02413 26.0942 9.30721C25.7465 9.58607 25.4803 9.95188 25.323 10.3668C25.116 10.8846 25.1299 11.3463 25.5998 11.7309C25.7302 11.8462 25.8458 11.9769 25.9439 12.1202L27.1832 13.6774C27.2315 13.739 27.273 13.8085 27.3179 13.8742C28.1704 15.1236 29.0412 16.3612 29.8695 17.6261C30.5246 18.6266 31.1174 19.6668 31.7585 20.6766C32.0101 21.0562 32.2847 21.4203 32.5807 21.767C32.6575 21.8582 32.7533 21.9317 32.8617 21.9825C32.97 22.0333 33.0881 22.0601 33.2079 22.061C33.7431 22.0843 34.1531 22.3951 34.5779 22.6678C34.601 22.689 34.6147 22.7183 34.6163 22.7494C34.6072 22.813 34.5915 22.8754 34.5695 22.9357C34.3749 22.8566 34.1858 22.7651 34.0032 22.6617C33.7102 22.4736 33.3763 22.3573 33.0289 22.3226C32.812 22.2957 32.6078 22.2062 32.4418 22.0651C32.1805 21.8367 31.956 21.5702 31.7759 21.2746C30.8426 19.6486 29.8297 18.0721 28.7872 16.5145C28.1919 15.6251 27.557 14.7617 26.9368 13.8887L25.5962 12.186C25.2595 11.8347 24.9257 11.4801 24.6049 11.1145C23.8947 10.3051 23.0006 9.73889 22.0736 9.2162C21.7046 9.00813 21.3382 9.05143 20.9335 9.18256C20.0847 9.45758 19.9948 9.90857 19.8393 10.1968C19.5867 10.6651 19.5973 11.161 19.7696 11.6608C20.051 12.4965 20.4895 13.2719 21.0618 13.946C21.2359 14.1497 21.3973 14.3641 21.563 14.5748C22.4828 15.7436 23.2302 17.0234 24.0155 18.2804C24.867 19.6435 25.7656 20.9778 26.6478 22.3221C26.9151 22.7294 27.2013 23.4853 27.4568 23.8995C27.869 24.5678 28.0617 24.9499 28.1713 25.6745C28.2498 25.8801 28.516 25.9203 28.481 26.1554C28.0708 26.2067 27.9386 26.1355 27.7296 25.7478C26.9964 24.3879 26.2993 23.0076 25.524 21.6719C24.5749 20.0368 23.5727 18.4314 22.571 16.827C21.8036 15.5977 20.6196 14.83 19.395 14.1179C19.3541 14.0942 19.3078 14.0797 19.2647 14.0595C18.8057 13.8443 18.3697 13.9163 17.949 14.1648C17.8265 14.2371 17.7072 14.3146 17.5866 14.3899C17.3201 14.5616 17.1105 14.8072 16.9839 15.0961C16.8573 15.3851 16.8192 15.7045 16.8745 16.0147C16.9886 16.6783 17.2714 17.2666 17.6186 17.8388C18.3457 19.0365 19.0517 20.2468 19.7624 21.4541L21.846 24.9566Z" stroke="#B6DAEB" stroke-width="3" stroke-linejoin="round" mask="url(#path-1-inside-1_552_323)"/>
<path d="M28.2579 48.0946C28.5324 48.2869 28.8129 48.476 29.0936 48.6631C28.2641 49.2355 27.4044 49.6747 26.454 49.8995L26.4469 49.9011L26.4399 49.9029C25.8817 50.0464 25.2988 50.0702 24.7304 49.9727L24.7293 49.9726C24.4017 49.9169 24.0898 49.7938 23.8138 49.6116C23.5378 49.4295 23.3039 49.1923 23.1268 48.9159L23.1221 48.9086L23.1173 48.9014C22.9269 48.6187 22.7801 48.3168 22.6689 47.9923C22.7389 48.0035 22.8087 48.0165 22.8798 48.0322L22.8799 48.0322C23.5139 48.1713 24.0958 48.0516 24.5357 47.9405L24.5357 47.9405C25.2005 47.7727 25.8661 47.5696 26.5485 47.3614C26.7122 47.3115 26.8769 47.2612 27.0428 47.2111C27.0742 47.2343 27.106 47.2578 27.1381 47.2816C27.4828 47.5365 27.8693 47.8224 28.2579 48.0946Z" stroke="#B6DAEB" stroke-width="1.5"/>
<path d="M16.8334 14.7431C16.902 14.6362 16.9822 14.5317 17.0738 14.4294L16.8334 14.7431ZM16.8334 14.7431C16.5774 14.5949 16.4453 14.5847 16.3903 14.5899C16.3496 14.5938 16.2462 14.6146 16.0634 14.822C15.9999 14.8962 15.938 14.9717 15.8778 15.0484M16.8334 14.7431L16.5813 13.8521C16.5588 13.8791 16.5384 13.9031 16.5152 13.9289L16.5152 13.9289C16.2917 14.1784 16.1108 14.4514 15.9844 14.7482L15.497 14.3304L15.9813 14.7553C15.9411 14.8506 15.9065 14.9483 15.8778 15.0484M16.8334 14.7431C16.5052 15.2547 16.4419 15.8196 16.6527 16.4443C16.8543 17.0416 17.0816 17.6203 17.4506 18.1458C17.6606 18.4447 17.8541 18.7551 18.0437 19.068C17.7301 18.9961 17.4209 19.0041 17.1465 19.0425M16.8334 14.7431L17.0721 19.8162M15.8778 15.0484C15.8616 15.105 15.8473 15.1624 15.835 15.2205C15.7325 15.706 15.7783 16.1989 15.9421 16.6841C16.1493 17.298 16.404 17.9604 16.8369 18.5768C16.9444 18.7299 17.0465 18.8848 17.1465 19.0425M15.8778 15.0484C15.5177 15.5073 15.2179 16.01 14.9859 16.5445L14.9825 16.5523L14.9825 16.5523C14.7778 17.0095 14.6813 17.5068 14.7 18.0061L14.7002 18.0094C14.7112 18.3415 14.7397 18.6773 14.774 19.0261M17.1465 19.0425L14.2979 16.2459C14.0463 16.808 13.9275 17.4197 13.9506 18.0343C13.9646 18.457 14.0048 18.8794 14.0477 19.3006C14.0525 19.3469 14.0576 19.3932 14.0631 19.4397C14.124 19.3857 14.1946 19.3293 14.275 19.2774C14.275 19.2774 14.275 19.2774 14.275 19.2774C14.2922 19.2663 14.3097 19.2555 14.3277 19.2449C14.4695 19.1615 14.6186 19.0873 14.774 19.0261M17.1465 19.0425C17.2867 19.2636 17.4229 19.4904 17.5643 19.7259C17.5719 19.7385 17.5795 19.7511 17.587 19.7637C17.4176 19.7594 17.2445 19.7809 17.0721 19.8162M17.1465 19.0425C17.0685 19.0534 16.9933 19.0668 16.9217 19.0814L16.9052 19.0848L16.889 19.0889C16.8114 19.1084 16.7295 19.1005 16.6577 19.067L16.6572 19.0668C15.9857 18.7537 15.3388 18.8036 14.774 19.0261M17.1465 19.0425L17.0721 19.8162M14.774 19.0261C14.7804 19.0917 14.7871 19.1579 14.7939 19.2245L14.7939 19.2245C14.8132 19.4146 14.8391 19.5964 14.8694 19.8036C15.3366 19.5708 15.8314 19.5092 16.3404 19.7465C16.5687 19.8532 16.8274 19.8778 17.0721 19.8162" stroke="#B6DAEB" stroke-width="1.5"/>
<path d="M18.4417 9.85001L18.4432 9.85052C18.5641 9.89074 18.6748 9.95258 18.7705 10.0318C18.7604 10.0611 18.7509 10.0902 18.7421 10.1185L18.7421 10.1185C18.5821 10.6339 18.4957 11.2539 18.7543 11.906L19.4515 11.6295L18.7543 11.906C18.792 12.0011 18.8202 12.0863 18.8546 12.1903C18.8741 12.2492 18.8956 12.3141 18.9219 12.3903C18.9795 12.5568 19.0549 12.7577 19.1661 12.9574C19.0868 12.9418 19.0046 12.9295 18.92 12.9222L18.92 12.9222C18.6131 12.8957 18.3267 12.9426 18.0977 12.9895C17.986 13.0123 17.8966 13.0328 17.8141 13.0516C17.7598 13.064 17.7084 13.0758 17.6558 13.087C17.3119 12.9544 17 12.8459 16.6533 12.831C16.5638 12.8271 16.4731 12.8296 16.3802 12.8373C16.6108 11.8932 16.937 11.0093 17.4233 10.2135C17.6314 9.87306 17.78 9.79702 17.8541 9.77377C17.9421 9.74616 18.104 9.73678 18.4417 9.85001ZM16.1163 12.8707C15.9506 12.8979 15.7752 12.9367 15.5845 12.9813C15.5966 12.9048 15.6109 12.8296 15.6286 12.7551L16.1163 12.8707L16.1163 12.8707Z" stroke="#B6DAEB" stroke-width="1.5"/>
<path d="M37.1428 17.3054C37.2102 17.426 37.277 17.5445 37.3429 17.6616C37.6518 18.2097 37.9418 18.7245 38.1825 19.2606C38.1357 19.1875 38.0886 19.1147 38.0412 19.042C37.7453 18.5883 37.3821 18.1746 37.0624 17.8104C37.0109 17.7517 36.9606 17.6944 36.9118 17.6383L36.9118 17.6383C36.8213 17.5343 36.7422 17.439 36.6736 17.3471C36.6774 17.346 36.6812 17.3449 36.685 17.3438C36.8338 17.3008 36.9895 17.2879 37.1428 17.3054ZM37.1212 17.2708C37.1207 17.2704 37.1207 17.2704 37.121 17.2706C37.1211 17.2707 37.1211 17.2707 37.1212 17.2708Z" stroke="#B6DAEB" stroke-width="1.5"/>
</g>
<defs>
<clipPath id="clip0_552_323">
<rect width="35" height="44.1304" fill="white" transform="translate(13 9)"/>
</clipPath>
</defs>
</svg>
