<svg width="163" height="49" viewBox="0 0 163 49" fill="none" xmlns="http://www.w3.org/2000/svg">
<path d="M156.996 48.1515H6.89373C3.53144 48.1515 0.889648 45.5032 0.889648 42.1326V6.01894C0.889648 2.64833 3.53144 0 6.89373 0H156.996C160.358 0 163 2.64833 163 6.01894V42.1326C163 45.5032 160.358 48.1515 156.996 48.1515Z" fill="#0C46B7"/>
<path d="M57.8084 12.2787C57.8084 13.2418 57.5682 14.0844 56.9678 14.6863C56.2474 15.4086 55.4068 15.7697 54.326 15.7697C53.2453 15.7697 52.4047 15.4086 51.6842 14.6863C50.9638 13.964 50.6035 13.1214 50.6035 12.038C50.6035 10.9546 50.9638 10.1119 51.6842 9.38964C52.4047 8.66737 53.2453 8.30623 54.326 8.30623C54.8064 8.30623 55.4068 8.42661 55.767 8.54699C56.2474 8.78774 56.6076 9.0285 56.9678 9.38964L56.2473 10.1119C56.0072 9.87115 55.767 9.6304 55.4068 9.51002C55.0465 9.38964 54.6863 9.26926 54.326 9.26926C53.4855 9.26926 52.8851 9.51002 52.2847 10.1119C51.8043 10.7138 51.4441 11.3157 51.4441 12.1584C51.4441 13.001 51.6842 13.7233 52.2847 14.2048C52.8851 14.8067 53.4855 15.0474 54.326 15.0474C55.0465 15.0474 55.6469 14.8067 56.1273 14.4455C56.6076 14.0844 56.8478 13.4825 56.9678 12.7602H54.326V11.7972H57.8084C57.8084 11.9176 57.8084 12.1584 57.8084 12.2787Z" fill="white" stroke="white" stroke-width="0.2" stroke-miterlimit="10"/>
<path d="M63.332 8.42659V9.26924H60.0898V11.5564H63.0918V12.3991H60.0898V14.6863H63.332V15.6493H59.1292V8.42659H63.332Z" fill="white" stroke="white" stroke-width="0.2" stroke-miterlimit="10"/>
<path d="M67.295 9.26924V15.6493H66.3344V9.26924H64.293V8.42659H69.3364V9.26924H67.295Z" fill="white" stroke="white" stroke-width="0.2" stroke-miterlimit="10"/>
<path d="M73.7793 15.6493H72.8186V8.42659H73.7793V15.6493Z" fill="white" stroke="white" stroke-width="0.2" stroke-miterlimit="10"/>
<path d="M77.8621 9.26924V15.6493H76.9015V9.26924H74.8601V8.42659H79.7835V9.26924H77.8621Z" fill="white" stroke="white" stroke-width="0.2" stroke-miterlimit="10"/>
<path d="M90.3501 12.038C90.3501 13.1214 89.9898 13.964 89.2693 14.6863C88.5489 15.4086 87.7083 15.7697 86.6276 15.7697C85.5468 15.7697 84.7062 15.4086 83.9858 14.6863C83.2653 13.964 82.905 13.1214 82.905 12.038C82.905 10.9546 83.2653 10.1119 83.9858 9.38964C84.7062 8.66737 85.5468 8.30623 86.6276 8.30623C87.7083 8.30623 88.5489 8.66737 89.2693 9.38964C89.9898 10.1119 90.3501 10.9546 90.3501 12.038ZM83.8657 12.038C83.8657 12.8806 84.1058 13.6029 84.7063 14.0844C85.1866 14.6863 85.9071 14.9271 86.6276 14.9271C87.4681 14.9271 88.0685 14.6863 88.5489 14.0844C89.0292 13.6029 89.3894 12.8806 89.3894 12.038C89.3894 11.1953 89.1493 10.473 88.5489 9.99153C88.0685 9.38964 87.348 9.14888 86.6276 9.14888C85.787 9.14888 85.1866 9.38964 84.7063 9.99153C84.1058 10.473 83.8657 11.1953 83.8657 12.038Z" fill="white" stroke="white" stroke-width="0.2" stroke-miterlimit="10"/>
<path d="M92.5119 15.6493H91.5513V8.42659H92.632L96.1144 14.0844V12.6398V8.42659H97.075V15.6493H96.1144L92.3918 9.75076V11.1953V15.6493H92.5119Z" fill="white" stroke="white" stroke-width="0.2" stroke-miterlimit="10"/>
<path d="M82.6652 26.2425C79.7832 26.2425 77.5017 28.4093 77.5017 31.4188C77.5017 34.3079 79.7832 36.5951 82.6652 36.5951C85.5472 36.5951 87.8287 34.4283 87.8287 31.4188C87.8287 28.289 85.5472 26.2425 82.6652 26.2425ZM82.6652 34.4283C81.1041 34.4283 79.7832 33.1041 79.7832 31.2984C79.7832 29.4928 81.1041 28.1686 82.6652 28.1686C84.2263 28.1686 85.5472 29.3724 85.5472 31.2984C85.5472 33.1041 84.2263 34.4283 82.6652 34.4283ZM71.4976 26.2425C68.6157 26.2425 66.3341 28.4093 66.3341 31.4188C66.3341 34.3079 68.6157 36.5951 71.4976 36.5951C74.3796 36.5951 76.6611 34.4283 76.6611 31.4188C76.6611 28.289 74.3796 26.2425 71.4976 26.2425ZM71.4976 34.4283C69.9366 34.4283 68.6157 33.1041 68.6157 31.2984C68.6157 29.4928 69.9366 28.1686 71.4976 28.1686C73.0587 28.1686 74.3796 29.3724 74.3796 31.2984C74.3796 33.1041 73.0587 34.4283 71.4976 34.4283ZM58.1686 27.8074V29.9743H63.3321C63.212 31.1781 62.7317 32.1411 62.1312 32.743C61.4108 33.4653 60.2099 34.3079 58.1686 34.3079C54.9263 34.3079 52.5247 31.78 52.5247 28.5297C52.5247 25.2795 55.0464 22.7515 58.1686 22.7515C59.8497 22.7515 61.1706 23.4738 62.1312 24.3165L63.6923 22.7515C62.3714 21.5477 60.6903 20.5847 58.2886 20.5847C53.9657 20.5847 50.2432 24.1961 50.2432 28.5297C50.2432 32.8634 53.9657 36.4747 58.2886 36.4747C60.6903 36.4747 62.3714 35.7525 63.8124 34.1875C65.2534 32.743 65.7337 30.6965 65.7337 29.1316C65.7337 28.6501 65.7337 28.1686 65.6136 27.8074H58.1686ZM112.686 29.4928C112.205 28.289 111.004 26.2425 108.363 26.2425C105.721 26.2425 103.559 28.289 103.559 31.4188C103.559 34.3079 105.721 36.5951 108.603 36.5951C110.884 36.5951 112.325 35.1506 112.806 34.3079L111.125 33.1041C110.524 33.9468 109.804 34.5487 108.603 34.5487C107.402 34.5487 106.682 34.0671 106.081 32.9837L112.926 30.0946L112.686 29.4928ZM105.721 31.1781C105.721 29.252 107.282 28.1686 108.363 28.1686C109.203 28.1686 110.044 28.6501 110.284 29.252L105.721 31.1781ZM100.077 36.1136H102.359V21.0662H100.077V36.1136ZM96.4746 27.3259C95.8742 26.724 94.9135 26.1221 93.7127 26.1221C91.191 26.1221 88.7894 28.4093 88.7894 31.2984C88.7894 34.1875 91.0709 36.3543 93.7127 36.3543C94.9135 36.3543 95.8742 35.7525 96.3545 35.1506H96.4746V35.8728C96.4746 37.7989 95.3939 38.8823 93.7127 38.8823C92.3918 38.8823 91.4312 37.9193 91.191 37.0766L89.2697 37.9193C89.8701 39.2434 91.3111 40.9287 93.8328 40.9287C96.4746 40.9287 98.6361 39.3638 98.6361 35.6321V26.4833H96.4746V27.3259ZM93.8328 34.4283C92.2717 34.4283 90.9508 33.1041 90.9508 31.2984C90.9508 29.4928 92.2717 28.1686 93.8328 28.1686C95.3939 28.1686 96.5947 29.4928 96.5947 31.2984C96.5947 33.1041 95.3939 34.4283 93.8328 34.4283ZM123.133 21.0662H117.729V36.1136H120.011V30.4558H123.133C125.654 30.4558 128.056 28.6501 128.056 25.761C128.056 22.8719 125.654 21.0662 123.133 21.0662ZM123.253 28.289H120.011V23.1127H123.253C124.934 23.1127 125.895 24.5572 125.895 25.6406C125.774 26.9648 124.814 28.289 123.253 28.289ZM137.062 26.1221C135.381 26.1221 133.7 26.8444 133.099 28.4093L135.141 29.252C135.621 28.4093 136.342 28.1686 137.182 28.1686C138.383 28.1686 139.464 28.8909 139.584 30.0946V30.215C139.224 29.9743 138.263 29.6131 137.302 29.6131C135.141 29.6131 132.979 30.8169 132.979 32.9837C132.979 35.0302 134.781 36.3543 136.702 36.3543C138.263 36.3543 138.983 35.6321 139.584 34.9098H139.704V36.1136H141.865V30.3354C141.625 27.6871 139.584 26.1221 137.062 26.1221ZM136.822 34.4283C136.102 34.4283 135.021 34.0671 135.021 33.1041C135.021 31.9003 136.342 31.5392 137.422 31.5392C138.383 31.5392 138.863 31.78 139.464 32.0207C139.224 33.4653 138.023 34.4283 136.822 34.4283ZM149.431 26.4833L146.909 32.9837H146.789L144.147 26.4833H141.745L145.708 35.6321L143.426 40.688H145.708L151.832 26.4833H149.431ZM129.257 36.1136H131.538V21.0662H129.257V36.1136Z" fill="white"/>
<path d="M25.7465 23.3533L13.0178 36.9561C13.3781 38.4007 14.699 39.4841 16.3801 39.4841C16.9805 39.4841 17.5809 39.3637 18.1813 39.0026L32.5911 30.6964L25.7465 23.3533Z" fill="#629BF0"/>
<path d="M38.7153 21.0661L32.4711 17.4548L25.5063 23.7145L32.4711 30.6964L38.5952 27.0851C39.676 26.4832 40.3965 25.3998 40.3965 24.0756C40.5166 22.7514 39.7961 21.668 38.7153 21.0661Z" fill="#ABDCFF"/>
<path d="M13.0178 11.1951C12.8977 11.4358 12.8977 11.797 12.8977 12.0377V36.1135C12.8977 36.4746 12.8977 36.7154 13.0178 36.9562L26.2268 23.7145L13.0178 11.1951Z" fill="#4285F4"/>
<path d="M25.8665 24.0756L32.471 17.4548L18.0612 9.14865C17.5809 8.78751 16.9805 8.66713 16.26 8.66713C14.6989 8.66713 13.2579 9.75054 12.8977 11.1951L25.8665 24.0756Z" fill="#2291FF"/>
</svg>
