<svg width="163" height="49" viewBox="0 0 163 49" fill="none" xmlns="http://www.w3.org/2000/svg">
<path d="M10.458 48.1515C10.0452 48.1515 9.63235 48.1515 9.21953 48.1515C8.3939 48.1515 7.43067 48.0255 6.60504 47.8994C5.77941 47.7734 5.09138 47.5213 4.26575 47.2692C3.57773 46.891 2.8897 46.5129 2.33928 46.0087C1.78886 45.5045 1.23844 44.8742 0.963235 44.244C0.55042 43.6137 0.412815 42.8574 0.27521 42.1011C0.137605 41.3448 0 40.5885 0 39.7061C0 39.454 0 38.5717 0 38.5717V9.45384C0 9.45384 0 8.57148 0 8.31938C0 7.56307 0.137605 6.68071 0.27521 5.9244C0.412815 5.29415 0.688025 4.53784 1.10084 3.90759C1.51365 3.27733 1.92647 2.64707 2.47689 2.14287C3.02731 1.63866 3.71533 1.26051 4.40336 0.882358C5.09138 0.504205 5.91701 0.378154 6.74264 0.252102C7.56827 0.126051 8.3939 0 9.35714 0H10.5956H152.053H153.292C154.118 0 154.943 0.126051 155.906 0.252102C156.732 0.378154 157.42 0.630256 158.246 0.882358C159.622 1.51261 160.86 2.64707 161.548 3.90759C161.961 4.53784 162.099 5.29415 162.236 5.9244C162.374 6.68071 162.511 7.56307 162.511 8.31938C162.511 8.69753 162.511 9.07568 162.511 9.45384C162.511 9.95804 162.511 10.3362 162.511 10.8404V37.1851C162.511 37.6893 162.511 38.0674 162.511 38.5717C162.511 38.9498 162.511 39.328 162.511 39.7061C162.511 40.4624 162.374 41.2187 162.236 42.1011C162.099 42.8574 161.823 43.4876 161.548 44.244C161.135 44.8742 160.723 45.5045 160.172 46.0087C159.622 46.5129 158.934 47.0171 158.246 47.2692C157.558 47.6473 156.732 47.8994 155.906 47.8994C155.081 48.0255 154.255 48.1515 153.292 48.1515C152.879 48.1515 152.466 48.1515 152.053 48.1515H150.54H10.458Z" fill="#0C46B7"/>
<path d="M30.103 24.4374C30.103 22.391 31.1955 20.4649 33.0162 19.3815C31.9238 17.8166 30.103 16.8535 28.1608 16.7332C26.0973 16.4924 24.1552 17.9369 23.0627 17.9369C21.9702 17.9369 20.3922 16.7332 18.6929 16.7332C16.3865 16.8535 14.323 18.0573 13.2305 19.9834C10.9242 23.9559 12.6236 29.9748 14.9299 33.2251C16.0224 34.79 17.3576 36.5957 19.057 36.5957C20.7564 36.4753 21.3633 35.5123 23.4268 35.5123C25.4904 35.5123 25.9759 36.5957 27.7967 36.5957C29.6175 36.5957 30.7099 35.0307 31.8024 33.3454C32.6521 32.262 33.259 30.9379 33.6231 29.6137C31.4382 28.8914 30.103 26.7246 30.103 24.4374Z" fill="white"/>
<path d="M26.7049 14.6862C27.676 13.4824 28.1615 12.0379 28.0401 10.4729C26.5835 10.5933 25.1269 11.3156 24.1558 12.5194C23.1847 13.6028 22.6992 15.0473 22.8206 16.6123C24.3986 16.6123 25.7338 15.89 26.7049 14.6862Z" fill="white"/>
<path d="M58.7402 32.623H53.0351L51.6999 36.7159H49.2722L54.7345 21.7889H57.1622L62.6245 36.7159H60.1968L58.7402 32.623ZM53.6421 30.8173H58.2547L55.9484 24.1965H55.827L53.6421 30.8173Z" fill="white"/>
<path d="M74.3985 31.2986C74.3985 34.6692 72.5777 36.836 69.7859 36.836C68.3293 36.9564 66.994 36.1138 66.3871 34.91V40.327H64.0808V25.8816H66.2657V27.6872C66.994 26.4835 68.3293 25.7612 69.7859 25.7612C72.4563 25.6408 74.3985 27.928 74.3985 31.2986ZM71.9708 31.2986C71.9708 29.1318 70.8783 27.6872 69.0576 27.6872C67.3582 27.6872 66.1443 29.1318 66.1443 31.2986C66.1443 33.4654 67.3582 34.91 69.0576 34.91C70.8783 34.91 71.9708 33.4654 71.9708 31.2986Z" fill="white"/>
<path d="M86.4158 31.2986C86.4158 34.6692 84.5951 36.836 81.8032 36.836C80.3466 36.9564 79.0114 36.1138 78.4045 34.91V40.327H76.0981V25.8816H78.2831V27.6872C79.0114 26.4835 80.3466 25.7612 81.8032 25.7612C84.5951 25.6408 86.4158 27.928 86.4158 31.2986ZM84.1095 31.2986C84.1095 29.1318 83.0171 27.6872 81.1963 27.6872C79.4969 27.6872 78.2831 29.1318 78.2831 31.2986C78.2831 33.4654 79.4969 34.91 81.1963 34.91C83.0171 34.91 84.1095 33.4654 84.1095 31.2986Z" fill="white"/>
<path d="M94.4268 32.5026C94.5482 33.9471 96.0048 34.9102 98.0683 34.9102C100.011 34.9102 101.346 33.9471 101.346 32.623C101.346 31.4192 100.496 30.8173 98.5539 30.3358L96.6117 29.8543C93.8199 29.132 92.606 27.9282 92.606 25.8818C92.606 23.3538 94.9124 21.5481 98.0683 21.5481C101.224 21.5481 103.409 23.3538 103.531 25.8818H101.224C101.103 24.4372 99.8891 23.4742 98.0683 23.4742C96.2476 23.4742 95.0337 24.4372 95.0337 25.7614C95.0337 26.8448 95.8834 27.4467 97.8256 27.9282L99.525 28.2893C102.56 29.0116 103.895 30.2154 103.895 32.3822C103.895 35.1509 101.589 36.9566 98.0683 36.9566C94.6696 36.9566 92.4847 35.2713 92.3633 32.5026H94.4268Z" fill="white"/>
<path d="M108.508 23.2331V25.7611H110.571V27.5668H108.508V33.5857C108.508 34.5487 108.872 34.9099 109.843 34.9099C110.086 34.9099 110.328 34.9099 110.571 34.9099V36.7156C110.207 36.8359 109.721 36.8359 109.357 36.8359C107.172 36.8359 106.323 35.9933 106.323 33.9468V27.6871H104.745V25.8815H106.323V23.3535H108.508V23.2331Z" fill="white"/>
<path d="M111.906 31.2989C111.906 27.9283 113.97 25.7614 117.126 25.7614C120.282 25.7614 122.346 27.9283 122.346 31.2989C122.346 34.7899 120.282 36.8363 117.126 36.8363C113.849 36.8363 111.906 34.6695 111.906 31.2989ZM120.039 31.2989C120.039 28.8913 118.947 27.5671 117.126 27.5671C115.305 27.5671 114.213 28.8913 114.213 31.2989C114.213 33.7064 115.305 35.0306 117.126 35.0306C118.947 35.0306 120.039 33.5861 120.039 31.2989Z" fill="white"/>
<path d="M124.166 25.7616H126.351V27.6876C126.594 26.4838 127.808 25.6412 129.021 25.7616C129.264 25.7616 129.507 25.7616 129.75 25.8819V27.9284C129.386 27.808 129.021 27.808 128.779 27.808C127.565 27.808 126.472 28.771 126.472 29.9748C126.472 30.0952 126.472 30.2156 126.472 30.336V36.8364H124.166V25.7616Z" fill="white"/>
<path d="M140.19 33.4655C139.947 35.3916 137.883 36.8361 135.456 36.8361C132.3 36.8361 130.236 34.6693 130.236 31.2987C130.236 27.9281 132.178 25.6409 135.334 25.6409C138.369 25.6409 140.311 27.6873 140.311 31.0579V31.7802H132.542V31.9006C132.421 33.4655 133.513 34.7897 135.091 35.0304C135.213 35.0304 135.334 35.0304 135.456 35.0304C136.548 35.1508 137.641 34.5489 138.005 33.4655H140.19ZM132.542 30.2153H138.005C138.126 28.7707 136.912 27.5669 135.456 27.4466C135.334 27.4466 135.334 27.4466 135.213 27.4466C133.756 27.4466 132.542 28.6503 132.542 30.2153Z" fill="white"/>
<path d="M52.0257 10.4735C53.8465 10.3531 55.3031 11.6772 55.4244 13.3625C55.4244 13.6033 55.4244 13.7237 55.4244 13.9644C55.4244 16.2516 54.2106 17.5758 52.0257 17.5758H49.3552V10.3531H52.0257V10.4735ZM50.5691 16.7332H51.9043C53.1181 16.8535 54.2106 15.8905 54.332 14.5663C54.332 14.446 54.332 14.2052 54.332 14.0848C54.4534 12.881 53.6037 11.6772 52.3898 11.5569C52.2685 11.5569 52.1471 11.5569 51.9043 11.5569H50.5691V16.7332Z" fill="white"/>
<path d="M56.76 14.9266C56.6386 13.4821 57.6097 12.2783 59.0663 12.1579C60.5229 12.0375 61.7367 13.0006 61.8581 14.4451C61.8581 14.5655 61.8581 14.8063 61.8581 14.9266C61.9795 16.3712 61.0084 17.575 59.5518 17.6953C58.0952 17.8157 56.8814 16.8527 56.76 15.4081C56.76 15.2878 56.76 15.1674 56.76 14.9266ZM60.7657 14.9266C60.7657 13.7228 60.2801 13.1209 59.3091 13.1209C58.338 13.1209 57.8524 13.8432 57.8524 14.9266C57.8524 16.1304 58.338 16.8527 59.3091 16.8527C60.2801 16.8527 60.7657 16.1304 60.7657 14.9266Z" fill="white"/>
<path d="M68.7765 17.6954H67.684L66.5915 13.7229H66.4701L65.3777 17.6954H64.2852L62.8286 12.2784H63.9211L64.8922 16.3713H65.0135L66.106 12.2784H67.1985L68.2909 16.3713H68.4123L69.3834 12.2784H70.4758L68.7765 17.6954Z" fill="white"/>
<path d="M71.5684 12.2786H72.6608V13.1213H72.7822C73.025 12.5194 73.7533 12.1583 74.3602 12.1583C75.3313 12.0379 76.181 12.7601 76.3024 13.8436C76.3024 13.9639 76.3024 14.0843 76.3024 14.2047V17.6957H75.2099V14.4454C75.2099 13.6028 74.8457 13.1213 73.996 13.1213C73.2677 13.1213 72.6608 13.6028 72.6608 14.3251C72.6608 14.4454 72.6608 14.4454 72.6608 14.5658V17.6957H71.5684V12.2786Z" fill="white"/>
<path d="M77.8804 10.1119H78.9728V17.6957H77.8804V10.1119Z" fill="white"/>
<path d="M80.4292 14.9266C80.3078 13.4821 81.2789 12.2783 82.7355 12.1579C84.1921 12.0375 85.4059 13.0006 85.5273 14.4451C85.5273 14.5655 85.5273 14.8063 85.5273 14.9266C85.6487 16.3712 84.6776 17.575 83.221 17.6953C81.7644 17.8157 80.5506 16.8527 80.4292 15.4081C80.4292 15.2878 80.4292 15.1674 80.4292 14.9266ZM84.5562 14.9266C84.5562 13.7228 84.0707 13.1209 83.0996 13.1209C82.1286 13.1209 81.643 13.8432 81.643 14.9266C81.643 16.1304 82.1286 16.8527 83.0996 16.8527C83.9493 16.8527 84.5562 16.1304 84.5562 14.9266Z" fill="white"/>
<path d="M86.7415 16.1312C86.7415 15.1681 87.4698 14.5663 88.805 14.5663L90.2617 14.4459V13.9644C90.2617 13.3625 89.8975 13.1217 89.1692 13.1217C88.5623 13.1217 88.1981 13.3625 88.0767 13.7236H86.9843C87.1056 12.7606 87.9553 12.1587 89.1692 12.1587C90.5044 12.1587 91.3541 12.8809 91.3541 13.9644V17.6961H90.2617V16.9738H90.1403C89.7761 17.5757 89.1692 17.8165 88.4409 17.8165C87.5912 17.9369 86.7415 17.2146 86.6201 16.3719C86.7415 16.2516 86.7415 16.2516 86.7415 16.1312ZM90.2617 15.6497V15.1681L88.9264 15.2885C88.1981 15.2885 87.834 15.6497 87.834 16.0108C87.834 16.4923 88.3195 16.7331 88.805 16.7331C89.5333 16.9738 90.1403 16.4923 90.2617 15.6497C90.2617 15.77 90.2617 15.77 90.2617 15.6497Z" fill="white"/>
<path d="M92.6892 14.927C92.6892 13.2417 93.5389 12.1583 94.9955 12.1583C95.7238 12.1583 96.3307 12.5194 96.6949 13.1213H96.8163V10.1119H97.9087V17.6957H96.8163V16.8531H96.6949C96.3307 17.455 95.7238 17.8161 94.9955 17.8161C93.6603 17.8161 92.6892 16.7327 92.6892 14.927ZM93.9031 14.927C93.9031 16.1308 94.51 16.7327 95.3597 16.7327C96.2094 16.7327 96.8163 16.0104 96.8163 14.927C96.8163 13.8436 96.2094 13.1213 95.3597 13.1213C94.3886 13.1213 93.9031 13.8436 93.9031 14.927Z" fill="white"/>
<path d="M102.279 14.9266C102.157 13.4821 103.128 12.2783 104.585 12.1579C106.041 12.0375 107.255 13.0006 107.377 14.4451C107.377 14.5655 107.377 14.8063 107.377 14.9266C107.498 16.3712 106.527 17.575 105.07 17.6953C103.614 17.8157 102.4 16.8527 102.279 15.4081C102.279 15.2878 102.279 15.1674 102.279 14.9266ZM106.406 14.9266C106.406 13.7228 105.92 13.1209 104.949 13.1209C103.978 13.1209 103.492 13.8432 103.492 14.9266C103.492 16.1304 103.978 16.8527 104.949 16.8527C105.799 16.8527 106.406 16.1304 106.406 14.9266Z" fill="white"/>
<path d="M108.955 12.2786H110.048V13.1213H110.169C110.412 12.5194 111.14 12.1583 111.747 12.1583C112.718 12.0379 113.568 12.7601 113.689 13.8436C113.689 13.9639 113.689 14.0843 113.689 14.2047V17.6957H112.597V14.4454C112.597 13.6028 112.232 13.1213 111.383 13.1213C110.654 13.1213 110.048 13.6028 110.048 14.3251C110.048 14.4454 110.048 14.4454 110.048 14.5658V17.6957H108.955V12.2786Z" fill="white"/>
<path d="M119.637 10.9548V12.279H120.85V13.242H119.637V16.0107C119.637 16.6126 119.879 16.8534 120.365 16.8534C120.486 16.8534 120.608 16.8534 120.729 16.8534V17.696C120.486 17.696 120.365 17.696 120.122 17.696C118.908 17.696 118.423 17.3349 118.423 16.2515V13.242H117.573V12.3993H118.423V10.9548H119.637Z" fill="white"/>
<path d="M122.307 10.1119H123.399V13.1213H123.52C123.763 12.5194 124.492 12.0379 125.22 12.1583C126.191 12.1583 127.041 12.8806 127.162 13.8436C127.162 13.964 127.162 14.0844 127.162 14.2047V17.6957H126.07V14.4455C126.07 13.6028 125.705 13.1213 124.856 13.1213C124.127 13.1213 123.52 13.6028 123.52 14.3251C123.52 14.4455 123.52 14.4455 123.52 14.5659V17.6957H122.428L122.307 10.1119Z" fill="white"/>
<path d="M133.353 16.2509C133.11 17.2139 132.018 17.9362 130.925 17.8158C129.59 17.8158 128.376 16.7324 128.376 15.4082C128.376 15.2879 128.376 15.1675 128.376 15.0471C128.133 13.7229 129.104 12.3988 130.561 12.2784C130.682 12.2784 130.804 12.2784 130.925 12.2784C132.503 12.2784 133.353 13.3618 133.353 15.0471V15.4082H129.469C129.347 16.2509 129.954 16.8528 130.804 16.9732H130.925C131.411 17.0936 132.018 16.7324 132.26 16.3713L133.353 16.2509ZM129.469 14.4452H132.26C132.26 13.7229 131.775 13.121 131.047 13.0007H130.925C130.197 13.121 129.469 13.7229 129.469 14.4452Z" fill="white"/>
</svg>
